<svg xmlns="http://www.w3.org/2000/svg" height="1200" width="1600" version="1.1" xmlns:xlink="http://www.w3.org/1999/xlink" xmlns:svgjs="http://svgjs.com/svgjs"><rect fill="#effaff" width="1600" height="1200"></rect><g><path d="M214.88 349.05C270.51 182.64 610.73 193.99 723.41 183.78 947.47 177.87 1236.07 150.63 1403.34 308.52 1445.55 352.56 1428.12 661.31 1419.22 699.56 1385.92 852 1215.81 944.85 1052.53 945.42 974.83 945.65 229.59 1011.6 172.68 711.14 157.45 636.22 202.23 390.14 214.88 349.05Z" fill="#deeff7" opacity="1" stroke-width="2" stroke="none"></path></g><g><path d="M675.21 520.08C669.49 525.81 660.33 525.81 654.61 520.08L589.03 454.5 609.63 433.9 675.21 499.48C681.05 505.21 681.05 514.36 675.21 520.08Z" fill="#abedd8" stroke="#333333" stroke-width="2" stroke-linecap="round" stroke-linejoin="round" opacity="1"></path><path d="M575.93 412.69C614.14 374.47 614.14 312.51 575.93 274.29 537.71 236.08 475.75 236.08 437.53 274.29 399.32 312.51 399.32 374.47 437.53 412.69 475.75 450.9 537.71 450.9 575.93 412.69Z" fill="#abedd8" stroke="#333333" stroke-width="2" stroke-linecap="round" stroke-linejoin="round" opacity="1"></path><path d="M585.48 335.02C585.71 337.88 585.94 340.74 585.94 343.6 585.94 387.32 550.46 422.8 506.74 422.8 463.02 422.8 427.54 387.32 427.54 343.6 427.54 299.88 463.02 264.41 506.74 264.41 541.76 264.41 571.52 287.18 582.05 318.88" stroke="#333333" stroke-width="2" stroke-linecap="round" stroke-linejoin="round" opacity="1" fill="none"></path><path d="M571.75 416.62L599.22 444.2" stroke="#333333" stroke-width="2" stroke-linecap="round" stroke-linejoin="round" opacity="1" fill="none"></path></g><g><path d="M928.95 882.2L899.65 1011.91" stroke="#333333" stroke-width="2" stroke-linecap="round" stroke-linejoin="round" opacity="1" fill="none"></path><path d="M840.68 882.2L811.37 1011.91" stroke="#333333" stroke-width="2" stroke-linecap="round" stroke-linejoin="round" opacity="1" fill="none"></path><path d="M964.8 882.2L994.11 1011.91" stroke="#333333" stroke-width="2" stroke-linecap="round" stroke-linejoin="round" opacity="1" fill="none"></path><path d="M1053.08 882.2L1082.46 1011.91" stroke="#333333" stroke-width="2" stroke-linecap="round" stroke-linejoin="round" opacity="1" fill="none"></path><path d="M1106.82 676.69C1106.82 676.69 1106.82 676.63 1106.82 676.69 1106.82 676.63 1106.75 676.63 1106.75 676.63H965.68C965.68 676.63 965.6 676.63 965.6 676.69L924.59 864.8 924.52 864.86H820.82C814.13 864.86 808.68 869.7 808.68 875.63 808.68 881.56 814.13 886.39 820.82 886.39H1065.73C1065.81 886.39 1065.81 886.39 1065.81 886.33V864.86L1106.82 676.69Z" fill="#78c7e0" stroke="#333333" stroke-width="2" stroke-linecap="round" stroke-linejoin="round" opacity="1"></path><path d="M924.52 864.8H1065.81" stroke="#333333" stroke-width="2" stroke-linecap="round" stroke-linejoin="round" opacity="1" fill="none"></path><path d="M906.56 886.33C899.87 886.33 894.41 881.5 894.41 875.56 894.41 869.63 899.87 864.8 906.56 864.8" stroke="#333333" stroke-width="2" stroke-linecap="round" stroke-linejoin="round" opacity="1" fill="none"></path></g><g><path d="M1132.37 391.41C1167.95 391.41 1196.8 362.56 1196.8 326.98 1196.8 291.4 1167.95 262.55 1132.37 262.55 1096.79 262.55 1067.94 291.4 1067.94 326.98 1067.94 362.56 1096.79 391.41 1132.37 391.41Z" fill="#46cdcf" stroke="#333333" stroke-width="2" stroke-linecap="round" stroke-linejoin="round" opacity="1"></path><path d="M1133.98 391.41V432.25C1133.98 454.47 1115.98 472.34 1093.89 472.34" stroke="#333333" stroke-width="2" stroke-linecap="round" stroke-linejoin="round" opacity="1" fill="none"></path><path d="M1149.13 301.28C1139.82 310.59 1124.67 310.59 1115.36 301.28" stroke="#333333" stroke-width="2" stroke-linecap="round" stroke-linejoin="round" opacity="1" fill="none"></path><path d="M1158.19 343.99C1148.88 334.67 1148.88 319.53 1158.19 310.22" stroke="#333333" stroke-width="2" stroke-linecap="round" stroke-linejoin="round" opacity="1" fill="none"></path><path d="M1115.73 352.67C1125.04 343.36 1140.19 343.36 1149.5 352.67" stroke="#333333" stroke-width="2" stroke-linecap="round" stroke-linejoin="round" opacity="1" fill="none"></path><path d="M1106.67 309.97C1115.98 319.28 1115.98 334.43 1106.67 343.74" stroke="#333333" stroke-width="2" stroke-linecap="round" stroke-linejoin="round" opacity="1" fill="none"></path></g><g><path d="M1025.71 656.85L935.3 632.3 835.75 656.85V1010.45H1025.71V656.85Z" fill="#48466d" stroke="#333333" stroke-width="2" stroke-linecap="round" stroke-linejoin="round" opacity="1"></path><path d="M975.52 530.3C975.52 542.84 985.62 552.94 998.16 552.94" stroke="#333333" stroke-width="2" stroke-linecap="round" stroke-linejoin="round" opacity="1" fill="none"></path><path d="M805.88 545.98L840.11 443.43C847.75 420.39 869.43 404.84 893.7 404.84H960.39C1006.75 404.84 1045.34 440.57 1048.89 486.8L1054.34 558.12C1055.98 580.34 1044.12 600.25 1025.84 610.07V656.71H835.75V607.75C811.61 599.16 797.16 572.3 805.88 545.98Z" fill="#ffffff" stroke="#333333" stroke-width="2" stroke-linecap="round" stroke-linejoin="round" opacity="1"></path><path d="M882.39 400.75C882.39 400.75 923.16 370.34 962.43 399.8 970.61 405.93 987.25 425.02 978.66 453.25 968.84 472.34 948.25 484.62 925.48 482.84 901.2 480.93 881.98 463.48 876.52 440.98 875.16 435.52 874.75 429.8 875.16 423.8 875.98 415.48 878.43 407.7 882.39 400.75Z" fill="#ffffff" stroke="#333333" stroke-width="2" stroke-linecap="round" stroke-linejoin="round" opacity="1"></path><path d="M902.43 416.57L900.66 439.61" stroke="#333333" stroke-width="2" stroke-linecap="round" stroke-linejoin="round" opacity="1" fill="none"></path><path d="M915.25 440.84C914.98 444.93 911.43 447.93 907.34 447.52 903.25 447.25 900.25 443.71 900.66 439.61" stroke="#333333" stroke-width="2" stroke-linecap="round" stroke-linejoin="round" opacity="1" fill="none"></path><path d="M934.34 373.61C956.16 375.39 973.89 389.57 981.11 408.66 983.98 416.02 985.21 424.2 984.52 432.66 984.11 438.52 982.61 444.25 980.43 449.43 979.89 450.8 979.21 452.16 978.66 453.39 965.3 452.3 955.48 440.71 956.43 427.34L958.07 406.89 882.39 400.89C892.75 383.02 912.52 371.84 934.34 373.61Z" fill="#48466d" stroke="#333333" stroke-width="2" stroke-linecap="round" stroke-linejoin="round" opacity="1"></path><path d="M907.48 749.99V728.85" stroke="#333333" stroke-width="2" stroke-linecap="round" stroke-linejoin="round" opacity="1" fill="none"></path><path d="M907.48 1010.45V768.12" stroke="#333333" stroke-width="2" stroke-linecap="round" stroke-linejoin="round" opacity="1" fill="none"></path><path d="M849.79 610.75C844.88 610.48 840.25 609.53 835.88 607.89" stroke="#333333" stroke-width="2" stroke-linecap="round" stroke-linejoin="round" opacity="1" fill="none"></path><path d="M852.93 532.34L890.16 470.57 947.57 498.39 915.11 553.07" stroke="#333333" stroke-width="2" stroke-linecap="round" stroke-linejoin="round" opacity="1" fill="none"></path><path d="M1025.84 610.21C1018.21 614.3 1009.48 616.75 1000.07 616.75H850.07V553.07L998.16 553.07" stroke="#333333" stroke-width="2" stroke-linecap="round" stroke-linejoin="round" opacity="1" fill="none"></path></g><g><path d="M821.61 697.95H697.16V754.92H821.61V697.95Z" fill="#abedd8" stroke="#333333" stroke-width="2" stroke-linecap="round" stroke-linejoin="round" opacity="1"></path><path d="M820.68 681.61H698C694.85 681.61 692.23 684.36 692.23 687.86V706.63H826.46V687.86C826.46 684.44 823.84 681.61 820.68 681.61Z" fill="#abedd8" stroke="#333333" stroke-width="2" stroke-linecap="round" stroke-linejoin="round" opacity="1"></path><path d="M775.58 697.95H743.03V715.22H775.58V697.95Z" fill="#ffffff" stroke="#333333" stroke-width="2" stroke-linecap="round" stroke-linejoin="round" opacity="1"></path><path d="M775.35 668.35H743.34C738.56 668.35 734.72 672.52 734.72 677.69V681.61H783.97V677.69C783.97 672.52 780.12 668.35 775.35 668.35Z" stroke="#333333" stroke-width="2" stroke-linecap="round" stroke-linejoin="round" opacity="1" fill="none"></path></g><g><path d="M651.72 756.14H580.92V698.29C580.92 678.8 596.77 662.95 616.26 662.95 635.74 662.95 651.6 678.8 651.6 698.29V756.14H651.72Z" fill="#3d84a8" stroke="#333333" stroke-width="2" stroke-linecap="round" stroke-linejoin="round" opacity="1"></path><path d="M616.26 723.1C629.83 723.1 640.83 712.1 640.83 698.53 640.83 684.96 629.83 673.96 616.26 673.96 602.69 673.96 591.69 684.96 591.69 698.53 591.69 712.1 602.69 723.1 616.26 723.1Z" fill="#78c7e0" stroke="#333333" stroke-width="2" stroke-linecap="round" stroke-linejoin="round" opacity="1"></path><path d="M616.26 683.16V698.53" stroke="#333333" stroke-width="2" stroke-linecap="round" stroke-linejoin="round" opacity="1" fill="none"></path><path d="M631.63 698.53H616.26" stroke="#333333" stroke-width="2" stroke-linecap="round" stroke-linejoin="round" opacity="1" fill="none"></path></g><g><path d="M1136.54 754.91H463.46V778.05H1136.54V754.91Z" fill="#46cdcf" stroke="#333333" stroke-width="2" stroke-linecap="round" stroke-linejoin="round" opacity="1"></path><path d="M516.59 778.05L438.93 1010.95" stroke="#333333" stroke-width="2" stroke-linecap="round" stroke-linejoin="round" opacity="1" fill="none"></path><path d="M1083.3 778.05L1161.07 1010.95" stroke="#333333" stroke-width="2" stroke-linecap="round" stroke-linejoin="round" opacity="1" fill="none"></path></g><g><path d="M1139.39 888.88H1176.01L1230.95 918.77 1279.62 888.88H1316.24V1011.86H1139.39V888.88Z" fill="#48466d" stroke="#333333" stroke-width="2" stroke-linecap="round" stroke-linejoin="round" opacity="1"></path><path d="M1258.24 939.56H1197.28C1185.46 939.56 1176.01 929.99 1176.01 918.3V888.88H1279.62V918.3C1279.62 930.11 1270.05 939.56 1258.24 939.56Z" fill="#3d84a8" stroke="#333333" stroke-width="2" stroke-linecap="round" stroke-linejoin="round" opacity="1"></path><path d="M1211.81 918.77H1243.82" stroke="#333333" stroke-width="2" stroke-linecap="round" stroke-linejoin="round" opacity="1" fill="none"></path><path d="M1243 850.01H1212.63C1203.3 850.01 1195.86 857.57 1195.86 866.79V888.88H1259.89V866.79C1259.77 857.57 1252.21 850.01 1243 850.01Z" stroke="#333333" stroke-width="2" stroke-linecap="round" stroke-linejoin="round" opacity="1" fill="none"></path></g><g><path d="M427.16 992.07H369.42C357.45 992.07 347.74 1000.43 347.74 1010.6H448.35C448.67 1000.43 438.97 992.07 427.16 992.07Z" fill="#48466d" stroke="#333333" stroke-width="2" stroke-linecap="round" stroke-linejoin="round" opacity="1"></path><path d="M398.21 992.07V579.32" stroke="#333333" stroke-width="2" stroke-linecap="round" stroke-linejoin="round" opacity="1" fill="none"></path><path d="M450.94 518.32L459.83 579.32H336.9L353.56 482.26H442.85L448.19 505.65" fill="#3d84a8" opacity="1" stroke-width="2" stroke="none"></path><path d="M450.94 518.32L459.83 579.32H336.9L353.56 482.26H442.85L448.19 505.65" stroke="#333333" stroke-width="2" stroke-linecap="round" stroke-linejoin="round" opacity="1" fill="none"></path><path d="M370.87 579.32V625.69" stroke="#333333" stroke-width="2" stroke-linecap="round" stroke-linejoin="round" opacity="1" fill="none"></path></g><g><path d="M572.36 956.75V1012.43H628.04L572.36 956.75Z" fill="#48466d" stroke="#333333" stroke-width="2" stroke-linecap="round" stroke-linejoin="round" opacity="1"></path><path d="M473.46 867.96H522.85V1012.43L473.46 1012.43V867.96Z" fill="#78c7e0" stroke="#333333" stroke-width="2" stroke-linecap="round" stroke-linejoin="round" opacity="1"></path><path d="M488.36 937.69H508.06L508.06 902.88C508.06 897.45 503.69 893.08 498.26 893.08 492.83 893.08 488.47 897.45 488.47 902.88V937.69H488.36Z" fill="#46cdcf" stroke="#333333" stroke-width="2" stroke-linecap="round" stroke-linejoin="round" opacity="1"></path><path d="M522.96 867.96H572.36V1012.43H522.96V867.96Z" fill="#78c7e0" stroke="#333333" stroke-width="2" stroke-linecap="round" stroke-linejoin="round" opacity="1"></path><path d="M557.45 923.11V902.77C557.45 897.34 553.09 892.98 547.66 892.98 542.23 892.98 537.86 897.34 537.86 902.77V937.58H557.56V930.56" fill="#46cdcf" opacity="1" stroke-width="2" stroke="none"></path><path d="M557.45 923.11V902.77C557.45 897.34 553.09 892.98 547.66 892.98 542.23 892.98 537.86 897.34 537.86 902.77V937.58H557.56V930.56" stroke="#333333" stroke-width="2" stroke-linecap="round" stroke-linejoin="round" opacity="1" fill="none"></path></g></svg>